<svg width="441" height="433" viewBox="0 0 441 433" fill="none" xmlns="http://www.w3.org/2000/svg">
<rect x="123" y="75" width="23" height="255" rx="11.5" fill="white"/>
<rect x="295" y="202" width="23" height="171" rx="11.5" fill="#019CDF"/>
<rect x="295" y="75" width="23" height="150" rx="11.5" fill="white"/>
<rect x="123" y="330" width="23" height="45" rx="11.5" fill="#019CDF"/>
<rect x="123" y="316" width="23" height="36" fill="#019CDF"/>
<rect x="123" y="75" width="138" height="23" rx="11.5" fill="white"/>
<rect x="123" y="75" width="23" height="265" rx="11.5" fill="white"/>
<rect x="203" y="202" width="115" height="23" rx="11.5" fill="white"/>
<rect x="123" y="352" width="195" height="23" rx="11.5" fill="#019CDF"/>
<rect x="272" y="75" width="46" height="23" rx="11.5" fill="white"/>
<rect x="261" y="242" width="23" height="23" rx="11.5" fill="white"/>
<rect x="123" y="202" width="64" height="23" rx="11.5" fill="white"/>
</svg>
